<?xml version="1.0" encoding="UTF-8" standalone="no"?><svg xmlns="http://www.w3.org/2000/svg" xmlns:xlink="http://www.w3.org/1999/xlink" contentScriptType="application/ecmascript" contentStyleType="text/css" height="1237px" preserveAspectRatio="none" style="width:1332px;height:1237px;" version="1.1" viewBox="0 0 1332 1237" width="1332px" zoomAndPan="magnify"><defs><filter height="300%" id="fxqyq0xh24gxs" width="300%" x="-1" y="-1"><feGaussianBlur result="blurOut" stdDeviation="2.0"/><feColorMatrix in="blurOut" result="blurOut2" type="matrix" values="0 0 0 0 0 0 0 0 0 0 0 0 0 0 0 0 0 0 .4 0"/><feOffset dx="4.0" dy="4.0" in="blurOut2" result="blurOut3"/><feBlend in="SourceGraphic" in2="blurOut3" mode="normal"/></filter></defs><g><rect fill="#FFFFFF" filter="url(#fxqyq0xh24gxs)" height="1044.1602" style="stroke: #A80036; stroke-width: 1.0;" width="10" x="262.5" y="162.9082"/><rect fill="#FFFFFF" filter="url(#fxqyq0xh24gxs)" height="1120.7813" style="stroke: #A80036; stroke-width: 1.0;" width="10" x="371.5" y="86.2871"/><rect fill="#90EE90" filter="url(#fxqyq0xh24gxs)" height="291.6621" style="stroke: #A80036; stroke-width: 1.0;" width="10" x="376.5" y="423.4375"/><rect fill="#006400" filter="url(#fxqyq0xh24gxs)" height="92.9316" style="stroke: #A80036; stroke-width: 1.0;" width="10" x="376.5" y="749.4102"/><rect fill="#90EE90" filter="url(#fxqyq0xh24gxs)" height="87.9316" style="stroke: #A80036; stroke-width: 1.0;" width="10" x="376.5" y="871.6523"/><rect fill="#90EE90" filter="url(#fxqyq0xh24gxs)" height="188.8633" style="stroke: #A80036; stroke-width: 1.0;" width="10" x="376.5" y="1018.2051"/><rect fill="#FFFFFF" filter="url(#fxqyq0xh24gxs)" height="426.5254" style="stroke: #A80036; stroke-width: 1.0;" width="10" x="569.5" y="650.3008"/><rect fill="#90EE90" filter="url(#fxqyq0xh24gxs)" height="35.4883" style="stroke: #A80036; stroke-width: 1.0;" width="10" x="569.5" y="650.3008"/><rect fill="#006400" filter="url(#fxqyq0xh24gxs)" height="29.3105" style="stroke: #A80036; stroke-width: 1.0;" width="10" x="569.5" y="783.7207"/><rect fill="#90EE90" filter="url(#fxqyq0xh24gxs)" height="29.3105" style="stroke: #A80036; stroke-width: 1.0;" width="10" x="569.5" y="900.9629"/><rect fill="#90EE90" filter="url(#fxqyq0xh24gxs)" height="29.3105" style="stroke: #A80036; stroke-width: 1.0;" width="10" x="569.5" y="1047.5156"/><rect fill="#FFC0CB" filter="url(#fxqyq0xh24gxs)" height="398.7715" style="stroke: #A80036; stroke-width: 1.0;" width="10" x="750" y="207.2188"/><rect fill="#FFFFFF" filter="url(#fxqyq0xh24gxs)" height="921.0508" style="stroke: #A80036; stroke-width: 1.0;" width="10" x="986" y="295.0176"/><rect fill="#FFC0CB" filter="url(#fxqyq0xh24gxs)" height="35.4883" style="stroke: #A80036; stroke-width: 1.0;" width="10" x="986" y="295.0176"/><rect fill="#FFC0CB" filter="url(#fxqyq0xh24gxs)" height="29.3105" style="stroke: #A80036; stroke-width: 1.0;" width="10" x="986" y="359.8164"/><rect fill="#FFC0CB" filter="url(#fxqyq0xh24gxs)" height="648.3887" style="stroke: #A80036; stroke-width: 1.0;" width="10" x="986" y="529.3691"/><rect fill="#0000FF" filter="url(#fxqyq0xh24gxs)" height="571.7676" style="stroke: #A80036; stroke-width: 1.0;" width="10" x="991" y="605.9902"/><rect fill="#90EE90" filter="url(#fxqyq0xh24gxs)" height="71.6211" style="stroke: #A80036; stroke-width: 1.0;" width="10" x="996" y="1106.1367"/><rect fill="#FFC0CB" filter="url(#fxqyq0xh24gxs)" height="30.4883" style="stroke: #A80036; stroke-width: 1.5;" width="191" x="657.5" y="175.9082"/><text fill="#000000" font-family="sans-serif" font-size="14" lengthAdjust="spacingAndGlyphs" textLength="177" x="664.5" y="196.4434">Supernaut Launch Thread</text><rect fill="#FEFECE" filter="url(#fxqyq0xh24gxs)" height="30.4883" style="stroke: #A80036; stroke-width: 1.5;" width="174" x="897" y="263.707"/><text fill="#000000" font-family="sans-serif" font-size="14" lengthAdjust="spacingAndGlyphs" textLength="160" x="904" y="284.2422">BackgroundApplication</text><rect fill="#FEFECE" filter="url(#fxqyq0xh24gxs)" height="30.4883" style="stroke: #A80036; stroke-width: 1.5;" width="152" x="491.5" y="618.9902"/><text fill="#000000" font-family="sans-serif" font-size="14" lengthAdjust="spacingAndGlyphs" textLength="138" x="498.5" y="639.5254">ApplicationDelegate</text><line style="stroke: #A80036; stroke-width: 1.0; stroke-dasharray: 5.0,5.0;" x1="267" x2="267" y1="54.9766" y2="1225.0684"/><line style="stroke: #A80036; stroke-width: 1.0; stroke-dasharray: 5.0,5.0;" x1="376.5" x2="376.5" y1="54.9766" y2="1225.0684"/><line style="stroke: #A80036; stroke-width: 1.0; stroke-dasharray: 5.0,5.0;" x1="569.5" x2="569.5" y1="651.7344" y2="1225.0684"/><line style="stroke: #A80036; stroke-width: 1.0; stroke-dasharray: 5.0,5.0;" x1="754.5" x2="754.5" y1="208.6523" y2="1225.0684"/><line style="stroke: #A80036; stroke-width: 1.0; stroke-dasharray: 5.0,5.0;" x1="986" x2="986" y1="296.4512" y2="1225.0684"/><rect fill="#90EE90" filter="url(#fxqyq0xh24gxs)" height="30.4883" style="stroke: #A80036; stroke-width: 1.5;" width="35" x="248" y="19.4883"/><text fill="#000000" font-family="sans-serif" font-size="14" lengthAdjust="spacingAndGlyphs" textLength="21" x="255" y="40.0234">JFX</text><rect fill="#FFC0CB" filter="url(#fxqyq0xh24gxs)" height="46.9766" style="stroke: #A80036; stroke-width: 1.5;" width="92" x="328.5" y="3"/><text fill="#000000" font-family="sans-serif" font-size="14" lengthAdjust="spacingAndGlyphs" textLength="78" x="335.5" y="23.5352">Supernaut/</text><text fill="#000000" font-family="sans-serif" font-size="14" lengthAdjust="spacingAndGlyphs" textLength="69" x="340" y="40.0234">Micronaut</text><rect fill="#FFFFFF" filter="url(#fxqyq0xh24gxs)" height="1044.1602" style="stroke: #A80036; stroke-width: 1.0;" width="10" x="262.5" y="162.9082"/><rect fill="#FFFFFF" filter="url(#fxqyq0xh24gxs)" height="1120.7813" style="stroke: #A80036; stroke-width: 1.0;" width="10" x="371.5" y="86.2871"/><rect fill="#90EE90" filter="url(#fxqyq0xh24gxs)" height="291.6621" style="stroke: #A80036; stroke-width: 1.0;" width="10" x="376.5" y="423.4375"/><rect fill="#006400" filter="url(#fxqyq0xh24gxs)" height="92.9316" style="stroke: #A80036; stroke-width: 1.0;" width="10" x="376.5" y="749.4102"/><rect fill="#90EE90" filter="url(#fxqyq0xh24gxs)" height="87.9316" style="stroke: #A80036; stroke-width: 1.0;" width="10" x="376.5" y="871.6523"/><rect fill="#90EE90" filter="url(#fxqyq0xh24gxs)" height="188.8633" style="stroke: #A80036; stroke-width: 1.0;" width="10" x="376.5" y="1018.2051"/><rect fill="#FFFFFF" filter="url(#fxqyq0xh24gxs)" height="426.5254" style="stroke: #A80036; stroke-width: 1.0;" width="10" x="569.5" y="650.3008"/><rect fill="#90EE90" filter="url(#fxqyq0xh24gxs)" height="35.4883" style="stroke: #A80036; stroke-width: 1.0;" width="10" x="569.5" y="650.3008"/><rect fill="#006400" filter="url(#fxqyq0xh24gxs)" height="29.3105" style="stroke: #A80036; stroke-width: 1.0;" width="10" x="569.5" y="783.7207"/><rect fill="#90EE90" filter="url(#fxqyq0xh24gxs)" height="29.3105" style="stroke: #A80036; stroke-width: 1.0;" width="10" x="569.5" y="900.9629"/><rect fill="#90EE90" filter="url(#fxqyq0xh24gxs)" height="29.3105" style="stroke: #A80036; stroke-width: 1.0;" width="10" x="569.5" y="1047.5156"/><rect fill="#FFC0CB" filter="url(#fxqyq0xh24gxs)" height="398.7715" style="stroke: #A80036; stroke-width: 1.0;" width="10" x="750" y="207.2188"/><rect fill="#FFFFFF" filter="url(#fxqyq0xh24gxs)" height="921.0508" style="stroke: #A80036; stroke-width: 1.0;" width="10" x="986" y="295.0176"/><rect fill="#FFC0CB" filter="url(#fxqyq0xh24gxs)" height="35.4883" style="stroke: #A80036; stroke-width: 1.0;" width="10" x="986" y="295.0176"/><rect fill="#FFC0CB" filter="url(#fxqyq0xh24gxs)" height="29.3105" style="stroke: #A80036; stroke-width: 1.0;" width="10" x="986" y="359.8164"/><rect fill="#FFC0CB" filter="url(#fxqyq0xh24gxs)" height="648.3887" style="stroke: #A80036; stroke-width: 1.0;" width="10" x="986" y="529.3691"/><rect fill="#0000FF" filter="url(#fxqyq0xh24gxs)" height="571.7676" style="stroke: #A80036; stroke-width: 1.0;" width="10" x="991" y="605.9902"/><rect fill="#90EE90" filter="url(#fxqyq0xh24gxs)" height="71.6211" style="stroke: #A80036; stroke-width: 1.0;" width="10" x="996" y="1106.1367"/><polygon fill="#A80036" points="359.5,82.2871,369.5,86.2871,359.5,90.2871,363.5,86.2871" style="stroke: #A80036; stroke-width: 1.0;"/><line style="stroke: #A80036; stroke-width: 1.0;" x1="3" x2="365.5" y1="86.2871" y2="86.2871"/><text fill="#000000" font-family="sans-serif" font-size="13" lengthAdjust="spacingAndGlyphs" textLength="50" x="10" y="81.5449">launch()</text><line style="stroke: #A80036; stroke-width: 1.0;" x1="381.5" x2="423.5" y1="115.5977" y2="115.5977"/><line style="stroke: #A80036; stroke-width: 1.0;" x1="423.5" x2="423.5" y1="115.5977" y2="128.5977"/><line style="stroke: #A80036; stroke-width: 1.0;" x1="382.5" x2="423.5" y1="128.5977" y2="128.5977"/><polygon fill="#A80036" points="392.5,124.5977,382.5,128.5977,392.5,132.5977,388.5,128.5977" style="stroke: #A80036; stroke-width: 1.0;"/><text fill="#000000" font-family="sans-serif" font-size="13" lengthAdjust="spacingAndGlyphs" textLength="82" x="388.5" y="110.8555">create thread</text><polygon fill="#A80036" points="283.5,158.9082,273.5,162.9082,283.5,166.9082,279.5,162.9082" style="stroke: #A80036; stroke-width: 1.0;"/><line style="stroke: #A80036; stroke-width: 1.0;" x1="277.5" x2="370.5" y1="162.9082" y2="162.9082"/><text fill="#000000" font-family="sans-serif" font-size="13" lengthAdjust="spacingAndGlyphs" textLength="77" x="289.5" y="158.166">initialize JFX</text><path d="M386,141.5977 L386,166.5977 L587,166.5977 L587,151.5977 L577,141.5977 L386,141.5977 " fill="#FFFFFF" filter="url(#fxqyq0xh24gxs)" style="stroke: #A80036; stroke-width: 1.0;"/><path d="M577,141.5977 L577,151.5977 L587,151.5977 L577,141.5977 " fill="#FFFFFF" style="stroke: #A80036; stroke-width: 1.0;"/><text fill="#FFC0CB" font-family="sans-serif" font-size="13" lengthAdjust="spacingAndGlyphs" textLength="180" x="392" y="159.166">Supernaut init thread in pink</text><polygon fill="#A80036" points="645.5,193.2188,655.5,197.2188,645.5,201.2188,649.5,197.2188" style="stroke: #A80036; stroke-width: 1.0;"/><line style="stroke: #A80036; stroke-width: 1.0;" x1="381.5" x2="651.5" y1="197.2188" y2="197.2188"/><text fill="#000000" font-family="sans-serif" font-size="13" lengthAdjust="spacingAndGlyphs" textLength="73" x="388.5" y="192.4766">start thread</text><rect fill="#FFC0CB" filter="url(#fxqyq0xh24gxs)" height="30.4883" style="stroke: #A80036; stroke-width: 1.5;" width="191" x="657.5" y="175.9082"/><text fill="#000000" font-family="sans-serif" font-size="14" lengthAdjust="spacingAndGlyphs" textLength="177" x="664.5" y="196.4434">Supernaut Launch Thread</text><line style="stroke: #A80036; stroke-width: 1.0;" x1="760" x2="802" y1="242.707" y2="242.707"/><line style="stroke: #A80036; stroke-width: 1.0;" x1="802" x2="802" y1="242.707" y2="255.707"/><line style="stroke: #A80036; stroke-width: 1.0;" x1="761" x2="802" y1="255.707" y2="255.707"/><polygon fill="#A80036" points="771,251.707,761,255.707,771,259.707,767,255.707" style="stroke: #A80036; stroke-width: 1.0;"/><text fill="#000000" font-family="sans-serif" font-size="13" lengthAdjust="spacingAndGlyphs" textLength="207" x="767" y="237.9648">ApplicationContext.build().start()</text><polygon fill="#A80036" points="885,281.0176,895,285.0176,885,289.0176,889,285.0176" style="stroke: #A80036; stroke-width: 1.0;"/><line style="stroke: #A80036; stroke-width: 1.0;" x1="760" x2="891" y1="285.0176" y2="285.0176"/><text fill="#000000" font-family="sans-serif" font-size="13" lengthAdjust="spacingAndGlyphs" textLength="81" x="767" y="280.2754">new w/inject</text><rect fill="#FEFECE" filter="url(#fxqyq0xh24gxs)" height="30.4883" style="stroke: #A80036; stroke-width: 1.5;" width="174" x="897" y="263.707"/><text fill="#000000" font-family="sans-serif" font-size="14" lengthAdjust="spacingAndGlyphs" textLength="160" x="904" y="284.2422">BackgroundApplication</text><polygon fill="#A80036" points="771,326.5059,761,330.5059,771,334.5059,767,330.5059" style="stroke: #A80036; stroke-width: 1.0;"/><line style="stroke: #A80036; stroke-width: 1.0; stroke-dasharray: 2.0,2.0;" x1="765" x2="980" y1="330.5059" y2="330.5059"/><text fill="#000000" font-family="sans-serif" font-size="13" lengthAdjust="spacingAndGlyphs" textLength="75" x="777" y="325.7637">constructed</text><polygon fill="#A80036" points="974,355.8164,984,359.8164,974,363.8164,978,359.8164" style="stroke: #A80036; stroke-width: 1.0;"/><line style="stroke: #A80036; stroke-width: 1.0;" x1="760" x2="980" y1="359.8164" y2="359.8164"/><text fill="#000000" font-family="sans-serif" font-size="13" lengthAdjust="spacingAndGlyphs" textLength="29" x="767" y="355.0742">init()</text><polygon fill="#A80036" points="771,385.127,761,389.127,771,393.127,767,389.127" style="stroke: #A80036; stroke-width: 1.0;"/><line style="stroke: #A80036; stroke-width: 1.0; stroke-dasharray: 2.0,2.0;" x1="765" x2="980" y1="389.127" y2="389.127"/><text fill="#000000" font-family="sans-serif" font-size="13" lengthAdjust="spacingAndGlyphs" textLength="38" x="777" y="384.3848">return</text><polygon fill="#A80036" points="364.5,419.4375,374.5,423.4375,364.5,427.4375,368.5,423.4375" style="stroke: #A80036; stroke-width: 1.0;"/><line style="stroke: #A80036; stroke-width: 1.0;" x1="272.5" x2="370.5" y1="423.4375" y2="423.4375"/><text fill="#000000" font-family="sans-serif" font-size="13" lengthAdjust="spacingAndGlyphs" textLength="52" x="279.5" y="418.6953">new app</text><path d="M8,402.127 L8,427.127 L254,427.127 L254,412.127 L244,402.127 L8,402.127 " fill="#FFFFFF" filter="url(#fxqyq0xh24gxs)" style="stroke: #A80036; stroke-width: 1.0;"/><path d="M244,402.127 L244,412.127 L254,412.127 L244,402.127 " fill="#FFFFFF" style="stroke: #A80036; stroke-width: 1.0;"/><text fill="#90EE90" font-family="sans-serif" font-size="13" lengthAdjust="spacingAndGlyphs" textLength="225" x="14" y="419.6953">JFX application thread in light green</text><line style="stroke: #A80036; stroke-width: 1.0;" x1="386.5" x2="428.5" y1="457.748" y2="457.748"/><line style="stroke: #A80036; stroke-width: 1.0;" x1="428.5" x2="428.5" y1="457.748" y2="470.748"/><line style="stroke: #A80036; stroke-width: 1.0;" x1="387.5" x2="428.5" y1="470.748" y2="470.748"/><polygon fill="#A80036" points="397.5,466.748,387.5,470.748,397.5,474.748,393.5,470.748" style="stroke: #A80036; stroke-width: 1.0;"/><text fill="#000000" font-family="sans-serif" font-size="13" lengthAdjust="spacingAndGlyphs" textLength="83" x="393.5" y="453.0059">wait for latch</text><polygon fill="#A80036" points="397.5,496.0586,387.5,500.0586,397.5,504.0586,393.5,500.0586" style="stroke: #A80036; stroke-width: 1.0;"/><line style="stroke: #A80036; stroke-width: 1.0;" x1="391.5" x2="749" y1="500.0586" y2="500.0586"/><text fill="#000000" font-family="sans-serif" font-size="13" lengthAdjust="spacingAndGlyphs" textLength="113" x="403.5" y="495.3164">latch.countdown()</text><polygon fill="#A80036" points="974,525.3691,984,529.3691,974,533.3691,978,529.3691" style="stroke: #A80036; stroke-width: 1.0;"/><line style="stroke: #A80036; stroke-width: 1.0;" x1="760" x2="980" y1="529.3691" y2="529.3691"/><text fill="#000000" font-family="sans-serif" font-size="13" lengthAdjust="spacingAndGlyphs" textLength="37" x="767" y="524.627">start()</text><line style="stroke: #A80036; stroke-width: 1.0;" x1="996" x2="1038" y1="558.6797" y2="558.6797"/><line style="stroke: #A80036; stroke-width: 1.0;" x1="1038" x2="1038" y1="558.6797" y2="571.6797"/><line style="stroke: #A80036; stroke-width: 1.0;" x1="997" x2="1038" y1="571.6797" y2="571.6797"/><polygon fill="#A80036" points="1007,567.6797,997,571.6797,1007,575.6797,1003,571.6797" style="stroke: #A80036; stroke-width: 1.0;"/><text fill="#000000" font-family="sans-serif" font-size="13" lengthAdjust="spacingAndGlyphs" textLength="128" x="1003" y="553.9375">start service threads</text><polygon fill="#A80036" points="766,601.9902,756,605.9902,766,609.9902,762,605.9902" style="stroke: #A80036; stroke-width: 1.0;"/><line style="stroke: #A80036; stroke-width: 1.0; stroke-dasharray: 2.0,2.0;" x1="760" x2="990" y1="605.9902" y2="605.9902"/><text fill="#000000" font-family="sans-serif" font-size="13" lengthAdjust="spacingAndGlyphs" textLength="38" x="772" y="601.248">return</text><path d="M1006,584.6797 L1006,609.6797 L1320,609.6797 L1320,594.6797 L1310,584.6797 L1006,584.6797 " fill="#FFFFFF" filter="url(#fxqyq0xh24gxs)" style="stroke: #A80036; stroke-width: 1.0;"/><path d="M1310,584.6797 L1310,594.6797 L1320,594.6797 L1310,584.6797 " fill="#FFFFFF" style="stroke: #A80036; stroke-width: 1.0;"/><text fill="#0000FF" font-family="sans-serif" font-size="13" lengthAdjust="spacingAndGlyphs" textLength="293" x="1012" y="602.248">Background application thread(s) if any in blue</text><polygon fill="#A80036" points="479.5,636.3008,489.5,640.3008,479.5,644.3008,483.5,640.3008" style="stroke: #A80036; stroke-width: 1.0;"/><line style="stroke: #A80036; stroke-width: 1.0;" x1="386.5" x2="485.5" y1="640.3008" y2="640.3008"/><text fill="#000000" font-family="sans-serif" font-size="13" lengthAdjust="spacingAndGlyphs" textLength="81" x="393.5" y="635.5586">new w/inject</text><rect fill="#FEFECE" filter="url(#fxqyq0xh24gxs)" height="30.4883" style="stroke: #A80036; stroke-width: 1.5;" width="152" x="491.5" y="618.9902"/><text fill="#000000" font-family="sans-serif" font-size="14" lengthAdjust="spacingAndGlyphs" textLength="138" x="498.5" y="639.5254">ApplicationDelegate</text><polygon fill="#A80036" points="397.5,681.7891,387.5,685.7891,397.5,689.7891,393.5,685.7891" style="stroke: #A80036; stroke-width: 1.0;"/><line style="stroke: #A80036; stroke-width: 1.0; stroke-dasharray: 2.0,2.0;" x1="391.5" x2="563.5" y1="685.7891" y2="685.7891"/><text fill="#000000" font-family="sans-serif" font-size="13" lengthAdjust="spacingAndGlyphs" textLength="75" x="403.5" y="681.0469">constructed</text><polygon fill="#A80036" points="283.5,711.0996,273.5,715.0996,283.5,719.0996,279.5,715.0996" style="stroke: #A80036; stroke-width: 1.0;"/><line style="stroke: #A80036; stroke-width: 1.0; stroke-dasharray: 2.0,2.0;" x1="277.5" x2="370.5" y1="715.0996" y2="715.0996"/><text fill="#000000" font-family="sans-serif" font-size="13" lengthAdjust="spacingAndGlyphs" textLength="75" x="289.5" y="710.3574">constructed</text><polygon fill="#A80036" points="364.5,745.4102,374.5,749.4102,364.5,753.4102,368.5,749.4102" style="stroke: #A80036; stroke-width: 1.0;"/><line style="stroke: #A80036; stroke-width: 1.0;" x1="272.5" x2="370.5" y1="749.4102" y2="749.4102"/><text fill="#000000" font-family="sans-serif" font-size="13" lengthAdjust="spacingAndGlyphs" textLength="48" x="279.5" y="744.668">init app</text><path d="M57,728.0996 L57,753.0996 L253,753.0996 L253,738.0996 L243,728.0996 L57,728.0996 " fill="#FFFFFF" filter="url(#fxqyq0xh24gxs)" style="stroke: #A80036; stroke-width: 1.0;"/><path d="M243,728.0996 L243,738.0996 L253,738.0996 L243,728.0996 " fill="#FFFFFF" style="stroke: #A80036; stroke-width: 1.0;"/><text fill="#008000" font-family="sans-serif" font-size="13" lengthAdjust="spacingAndGlyphs" textLength="175" x="63" y="745.668">JFX init thread in dark green</text><polygon fill="#A80036" points="557.5,779.7207,567.5,783.7207,557.5,787.7207,561.5,783.7207" style="stroke: #A80036; stroke-width: 1.0;"/><line style="stroke: #A80036; stroke-width: 1.0;" x1="386.5" x2="563.5" y1="783.7207" y2="783.7207"/><text fill="#000000" font-family="sans-serif" font-size="13" lengthAdjust="spacingAndGlyphs" textLength="29" x="393.5" y="778.9785">init()</text><polygon fill="#A80036" points="397.5,809.0313,387.5,813.0313,397.5,817.0313,393.5,813.0313" style="stroke: #A80036; stroke-width: 1.0;"/><line style="stroke: #A80036; stroke-width: 1.0; stroke-dasharray: 2.0,2.0;" x1="391.5" x2="563.5" y1="813.0313" y2="813.0313"/><text fill="#000000" font-family="sans-serif" font-size="13" lengthAdjust="spacingAndGlyphs" textLength="38" x="403.5" y="808.2891">return</text><polygon fill="#A80036" points="283.5,838.3418,273.5,842.3418,283.5,846.3418,279.5,842.3418" style="stroke: #A80036; stroke-width: 1.0;"/><line style="stroke: #A80036; stroke-width: 1.0; stroke-dasharray: 2.0,2.0;" x1="277.5" x2="370.5" y1="842.3418" y2="842.3418"/><text fill="#000000" font-family="sans-serif" font-size="13" lengthAdjust="spacingAndGlyphs" textLength="38" x="289.5" y="837.5996">return</text><polygon fill="#A80036" points="364.5,867.6523,374.5,871.6523,364.5,875.6523,368.5,871.6523" style="stroke: #A80036; stroke-width: 1.0;"/><line style="stroke: #A80036; stroke-width: 1.0;" x1="272.5" x2="370.5" y1="871.6523" y2="871.6523"/><text fill="#000000" font-family="sans-serif" font-size="13" lengthAdjust="spacingAndGlyphs" textLength="56" x="279.5" y="866.9102">start app</text><polygon fill="#A80036" points="557.5,896.9629,567.5,900.9629,557.5,904.9629,561.5,900.9629" style="stroke: #A80036; stroke-width: 1.0;"/><line style="stroke: #A80036; stroke-width: 1.0;" x1="386.5" x2="563.5" y1="900.9629" y2="900.9629"/><text fill="#000000" font-family="sans-serif" font-size="13" lengthAdjust="spacingAndGlyphs" textLength="37" x="393.5" y="896.2207">start()</text><polygon fill="#A80036" points="397.5,926.2734,387.5,930.2734,397.5,934.2734,393.5,930.2734" style="stroke: #A80036; stroke-width: 1.0;"/><line style="stroke: #A80036; stroke-width: 1.0; stroke-dasharray: 2.0,2.0;" x1="391.5" x2="563.5" y1="930.2734" y2="930.2734"/><text fill="#000000" font-family="sans-serif" font-size="13" lengthAdjust="spacingAndGlyphs" textLength="38" x="403.5" y="925.5313">return</text><polygon fill="#A80036" points="283.5,955.584,273.5,959.584,283.5,963.584,279.5,959.584" style="stroke: #A80036; stroke-width: 1.0;"/><line style="stroke: #A80036; stroke-width: 1.0; stroke-dasharray: 2.0,2.0;" x1="277.5" x2="370.5" y1="959.584" y2="959.584"/><text fill="#000000" font-family="sans-serif" font-size="13" lengthAdjust="spacingAndGlyphs" textLength="38" x="289.5" y="954.8418">return</text><polygon fill="#A80036" points="585.5,984.8945,575.5,988.8945,585.5,992.8945,581.5,988.8945" style="stroke: #A80036; stroke-width: 1.0;"/><line style="stroke: #A80036; stroke-width: 1.0;" x1="579.5" x2="990" y1="988.8945" y2="988.8945"/><text fill="#000000" font-family="sans-serif" font-size="13" lengthAdjust="spacingAndGlyphs" textLength="44" x="591.5" y="984.1523">started</text><polygon fill="#A80036" points="364.5,1014.2051,374.5,1018.2051,364.5,1022.2051,368.5,1018.2051" style="stroke: #A80036; stroke-width: 1.0;"/><line style="stroke: #A80036; stroke-width: 1.0;" x1="272.5" x2="370.5" y1="1018.2051" y2="1018.2051"/><text fill="#000000" font-family="sans-serif" font-size="13" lengthAdjust="spacingAndGlyphs" textLength="55" x="279.5" y="1013.4629">stop app</text><polygon fill="#A80036" points="557.5,1043.5156,567.5,1047.5156,557.5,1051.5156,561.5,1047.5156" style="stroke: #A80036; stroke-width: 1.0;"/><line style="stroke: #A80036; stroke-width: 1.0;" x1="386.5" x2="563.5" y1="1047.5156" y2="1047.5156"/><text fill="#000000" font-family="sans-serif" font-size="13" lengthAdjust="spacingAndGlyphs" textLength="36" x="393.5" y="1042.7734">stop()</text><polygon fill="#A80036" points="397.5,1072.8262,387.5,1076.8262,397.5,1080.8262,393.5,1076.8262" style="stroke: #A80036; stroke-width: 1.0;"/><line style="stroke: #A80036; stroke-width: 1.0; stroke-dasharray: 2.0,2.0;" x1="391.5" x2="568.5" y1="1076.8262" y2="1076.8262"/><text fill="#000000" font-family="sans-serif" font-size="13" lengthAdjust="spacingAndGlyphs" textLength="38" x="403.5" y="1072.084">return</text><polygon fill="#A80036" points="984,1102.1367,994,1106.1367,984,1110.1367,988,1106.1367" style="stroke: #A80036; stroke-width: 1.0;"/><line style="stroke: #A80036; stroke-width: 1.0;" x1="386.5" x2="990" y1="1106.1367" y2="1106.1367"/><text fill="#000000" font-family="sans-serif" font-size="13" lengthAdjust="spacingAndGlyphs" textLength="36" x="393.5" y="1101.3945">stop()</text><line style="stroke: #A80036; stroke-width: 1.0;" x1="1006" x2="1048" y1="1135.4473" y2="1135.4473"/><line style="stroke: #A80036; stroke-width: 1.0;" x1="1048" x2="1048" y1="1135.4473" y2="1148.4473"/><line style="stroke: #A80036; stroke-width: 1.0;" x1="1007" x2="1048" y1="1148.4473" y2="1148.4473"/><polygon fill="#A80036" points="1017,1144.4473,1007,1148.4473,1017,1152.4473,1013,1148.4473" style="stroke: #A80036; stroke-width: 1.0;"/><text fill="#000000" font-family="sans-serif" font-size="13" lengthAdjust="spacingAndGlyphs" textLength="127" x="1013" y="1130.7051">stop service threads</text><polygon fill="#A80036" points="397.5,1173.7578,387.5,1177.7578,397.5,1181.7578,393.5,1177.7578" style="stroke: #A80036; stroke-width: 1.0;"/><line style="stroke: #A80036; stroke-width: 1.0; stroke-dasharray: 2.0,2.0;" x1="391.5" x2="980" y1="1177.7578" y2="1177.7578"/><text fill="#000000" font-family="sans-serif" font-size="13" lengthAdjust="spacingAndGlyphs" textLength="38" x="403.5" y="1173.0156">return</text><polygon fill="#A80036" points="278.5,1203.0684,268.5,1207.0684,278.5,1211.0684,274.5,1207.0684" style="stroke: #A80036; stroke-width: 1.0;"/><line style="stroke: #A80036; stroke-width: 1.0; stroke-dasharray: 2.0,2.0;" x1="272.5" x2="375.5" y1="1207.0684" y2="1207.0684"/><text fill="#000000" font-family="sans-serif" font-size="13" lengthAdjust="spacingAndGlyphs" textLength="38" x="284.5" y="1202.3262">return</text><!--MD5=[2b68d38768b18e5b521d857ae87fd599]
@startuml

skinparam NoteBackgroundColor white
hide footbox

participant JFX #LightGreen
participant "Supernaut/\nMicronaut" as Supernaut #pink
participant ApplicationDelegate
participant "Supernaut Launch Thread" as LaunchThread #pink
participant BackgroundApplication

[-> Supernaut : launch()
activate  Supernaut
Supernaut -> Supernaut : create thread
Supernaut -> JFX : initialize JFX
activate JFX
note right: <font color=pink>Supernaut init thread in pink
Supernaut -> LaunchThread ** : start thread
activate LaunchThread #pink

LaunchThread -> LaunchThread : ApplicationContext.build().start()
LaunchThread -> BackgroundApplication ** : new w/inject
activate BackgroundApplication
activate BackgroundApplication #pink
LaunchThread <- - BackgroundApplication : constructed
deactivate BackgroundApplication #pink

LaunchThread -> BackgroundApplication : init()
activate BackgroundApplication #pink
LaunchThread <- - BackgroundApplication : return
deactivate BackgroundApplication #pink

JFX -> Supernaut : new app
note left: <font color=lightgreen>JFX application thread in light green
activate Supernaut #LightGreen
Supernaut -> Supernaut : wait for latch
Supernaut <- LaunchThread : latch.countdown()

LaunchThread -> BackgroundApplication : start()
activate BackgroundApplication #pink
BackgroundApplication -> BackgroundApplication : start service threads
LaunchThread <- - BackgroundApplication : return

deactivate LaunchThread #pink
note right: <font color=blue>Background application thread(s) if any in blue
activate BackgroundApplication #blue



Supernaut -> ApplicationDelegate ** : new w/inject
activate ApplicationDelegate
activate  ApplicationDelegate #LightGreen
Supernaut <- - ApplicationDelegate : constructed
deactivate  ApplicationDelegate  #LightGreen
JFX <- - Supernaut : constructed
deactivate  Supernaut  #LightGreen

JFX -> Supernaut : init app
note left: <font color=green>JFX init thread in dark green
activate Supernaut #DarkGreen
Supernaut -> ApplicationDelegate  : init()
activate  ApplicationDelegate #DarkGreen
Supernaut <- - ApplicationDelegate : return
deactivate  ApplicationDelegate  #DarkGreen
JFX <- - Supernaut : return
deactivate  Supernaut  #DarkGreen

JFX -> Supernaut : start app
activate Supernaut #LightGreen
Supernaut -> ApplicationDelegate  : start()
activate  ApplicationDelegate #LightGreen
Supernaut <- - ApplicationDelegate : return
deactivate  ApplicationDelegate  #LightGreen
JFX <- - Supernaut : return
deactivate  Supernaut  #LightGreen

ApplicationDelegate <- BackgroundApplication : started

JFX -> Supernaut : stop app
activate Supernaut #LightGreen
Supernaut -> ApplicationDelegate  : stop()
activate  ApplicationDelegate #LightGreen
Supernaut <- - ApplicationDelegate : return
deactivate ApplicationDelegate  #LightGreen
deactivate ApplicationDelegate

Supernaut -> BackgroundApplication  : stop()
activate  BackgroundApplication #LightGreen
BackgroundApplication -> BackgroundApplication : stop service threads
Supernaut <- - BackgroundApplication : return
deactivate  BackgroundApplication  #blue
deactivate  BackgroundApplication  #LightGreen
deactivate  BackgroundApplication


JFX <- - Supernaut : return
deactivate  Supernaut  #LightGreen

deactivate  ApplicationDelegate
deactivate  Supernaut
deactivate  JFX

@enduml

PlantUML version 1.2019.12(Sun Nov 03 02:24:54 PST 2019)
(APACHE source distribution)
Java Runtime: OpenJDK Runtime Environment
JVM: OpenJDK 64-Bit Server VM
Java Version: 17+35
Operating System: Mac OS X
Default Encoding: UTF-8
Language: en
Country: US
--></g></svg>