<?xml version="1.0" encoding="UTF-8" standalone="no"?><svg xmlns="http://www.w3.org/2000/svg" xmlns:xlink="http://www.w3.org/1999/xlink" contentScriptType="application/ecmascript" contentStyleType="text/css" height="376px" preserveAspectRatio="none" style="width:638px;height:376px;" version="1.1" viewBox="0 0 638 376" width="638px" zoomAndPan="magnify"><defs><filter height="300%" id="foqep9pitke47" width="300%" x="-1" y="-1"><feGaussianBlur result="blurOut" stdDeviation="2.0"/><feColorMatrix in="blurOut" result="blurOut2" type="matrix" values="0 0 0 0 0 0 0 0 0 0 0 0 0 0 0 0 0 0 .4 0"/><feOffset dx="4.0" dy="4.0" in="blurOut2" result="blurOut3"/><feBlend in="SourceGraphic" in2="blurOut3" mode="normal"/></filter></defs><g><rect fill="#FFFFFF" filter="url(#foqep9pitke47)" height="260.6621" style="stroke: #A80036; stroke-width: 1.0;" width="10" x="72" y="86.2871"/><rect fill="#FFFFFF" filter="url(#foqep9pitke47)" height="221.3516" style="stroke: #A80036; stroke-width: 1.0;" width="10" x="276" y="125.5977"/><rect fill="#90EE90" filter="url(#foqep9pitke47)" height="35.4883" style="stroke: #A80036; stroke-width: 1.0;" width="10" x="276" y="125.5977"/><rect fill="#006400" filter="url(#foqep9pitke47)" height="34.3105" style="stroke: #A80036; stroke-width: 1.0;" width="10" x="276" y="195.3965"/><rect fill="#90EE90" filter="url(#foqep9pitke47)" height="29.3105" style="stroke: #A80036; stroke-width: 1.0;" width="10" x="276" y="259.0176"/><rect fill="#90EE90" filter="url(#foqep9pitke47)" height="29.3105" style="stroke: #A80036; stroke-width: 1.0;" width="10" x="276" y="317.6387"/><rect fill="#FEFECE" filter="url(#foqep9pitke47)" height="30.4883" style="stroke: #A80036; stroke-width: 1.5;" width="174" x="187" y="94.2871"/><text fill="#000000" font-family="sans-serif" font-size="14" lengthAdjust="spacingAndGlyphs" textLength="160" x="194" y="114.8223">ForegroundApplication</text><line style="stroke: #A80036; stroke-width: 1.0; stroke-dasharray: 5.0,5.0;" x1="77" x2="77" y1="54.9766" y2="364.9492"/><line style="stroke: #A80036; stroke-width: 1.0; stroke-dasharray: 5.0,5.0;" x1="276" x2="276" y1="127.0313" y2="364.9492"/><rect fill="#FFC0CB" filter="url(#foqep9pitke47)" height="46.9766" style="stroke: #A80036; stroke-width: 1.5;" width="92" x="29" y="3"/><text fill="#000000" font-family="sans-serif" font-size="14" lengthAdjust="spacingAndGlyphs" textLength="78" x="36" y="23.5352">Supernaut/</text><text fill="#000000" font-family="sans-serif" font-size="14" lengthAdjust="spacingAndGlyphs" textLength="69" x="40.5" y="40.0234">Micronaut</text><rect fill="#FFFFFF" filter="url(#foqep9pitke47)" height="260.6621" style="stroke: #A80036; stroke-width: 1.0;" width="10" x="72" y="86.2871"/><rect fill="#FFFFFF" filter="url(#foqep9pitke47)" height="221.3516" style="stroke: #A80036; stroke-width: 1.0;" width="10" x="276" y="125.5977"/><rect fill="#90EE90" filter="url(#foqep9pitke47)" height="35.4883" style="stroke: #A80036; stroke-width: 1.0;" width="10" x="276" y="125.5977"/><rect fill="#006400" filter="url(#foqep9pitke47)" height="34.3105" style="stroke: #A80036; stroke-width: 1.0;" width="10" x="276" y="195.3965"/><rect fill="#90EE90" filter="url(#foqep9pitke47)" height="29.3105" style="stroke: #A80036; stroke-width: 1.0;" width="10" x="276" y="259.0176"/><rect fill="#90EE90" filter="url(#foqep9pitke47)" height="29.3105" style="stroke: #A80036; stroke-width: 1.0;" width="10" x="276" y="317.6387"/><polygon fill="#A80036" points="60,82.2871,70,86.2871,60,90.2871,64,86.2871" style="stroke: #A80036; stroke-width: 1.0;"/><line style="stroke: #A80036; stroke-width: 1.0;" x1="3" x2="66" y1="86.2871" y2="86.2871"/><text fill="#000000" font-family="sans-serif" font-size="13" lengthAdjust="spacingAndGlyphs" textLength="50" x="10" y="81.5449">launch()</text><polygon fill="#A80036" points="175,111.5977,185,115.5977,175,119.5977,179,115.5977" style="stroke: #A80036; stroke-width: 1.0;"/><line style="stroke: #A80036; stroke-width: 1.0;" x1="82" x2="181" y1="115.5977" y2="115.5977"/><text fill="#000000" font-family="sans-serif" font-size="13" lengthAdjust="spacingAndGlyphs" textLength="81" x="89" y="110.8555">new w/inject</text><rect fill="#FEFECE" filter="url(#foqep9pitke47)" height="30.4883" style="stroke: #A80036; stroke-width: 1.5;" width="174" x="187" y="94.2871"/><text fill="#000000" font-family="sans-serif" font-size="14" lengthAdjust="spacingAndGlyphs" textLength="160" x="194" y="114.8223">ForegroundApplication</text><path d="M380,102.376 L380,127.376 L626,127.376 L626,112.376 L616,102.376 L380,102.376 " fill="#FFFFFF" filter="url(#foqep9pitke47)" style="stroke: #A80036; stroke-width: 1.0;"/><path d="M616,102.376 L616,112.376 L626,112.376 L616,102.376 " fill="#FFFFFF" style="stroke: #A80036; stroke-width: 1.0;"/><text fill="#90EE90" font-family="sans-serif" font-size="13" lengthAdjust="spacingAndGlyphs" textLength="225" x="386" y="119.9443">JFX application thread in light green</text><polygon fill="#A80036" points="93,157.0859,83,161.0859,93,165.0859,89,161.0859" style="stroke: #A80036; stroke-width: 1.0;"/><line style="stroke: #A80036; stroke-width: 1.0; stroke-dasharray: 2.0,2.0;" x1="87" x2="270" y1="161.0859" y2="161.0859"/><text fill="#000000" font-family="sans-serif" font-size="13" lengthAdjust="spacingAndGlyphs" textLength="75" x="99" y="156.3438">constructed</text><polygon fill="#A80036" points="264,191.3965,274,195.3965,264,199.3965,268,195.3965" style="stroke: #A80036; stroke-width: 1.0;"/><line style="stroke: #A80036; stroke-width: 1.0;" x1="82" x2="270" y1="195.3965" y2="195.3965"/><text fill="#000000" font-family="sans-serif" font-size="13" lengthAdjust="spacingAndGlyphs" textLength="29" x="89" y="190.6543">init()</text><path d="M291,174.0859 L291,199.0859 L487,199.0859 L487,184.0859 L477,174.0859 L291,174.0859 " fill="#FFFFFF" filter="url(#foqep9pitke47)" style="stroke: #A80036; stroke-width: 1.0;"/><path d="M477,174.0859 L477,184.0859 L487,184.0859 L477,174.0859 " fill="#FFFFFF" style="stroke: #A80036; stroke-width: 1.0;"/><text fill="#008000" font-family="sans-serif" font-size="13" lengthAdjust="spacingAndGlyphs" textLength="175" x="297" y="191.6543">JFX init thread in dark green</text><polygon fill="#A80036" points="93,225.707,83,229.707,93,233.707,89,229.707" style="stroke: #A80036; stroke-width: 1.0;"/><line style="stroke: #A80036; stroke-width: 1.0; stroke-dasharray: 2.0,2.0;" x1="87" x2="270" y1="229.707" y2="229.707"/><text fill="#000000" font-family="sans-serif" font-size="13" lengthAdjust="spacingAndGlyphs" textLength="38" x="99" y="224.9648">return</text><polygon fill="#A80036" points="264,255.0176,274,259.0176,264,263.0176,268,259.0176" style="stroke: #A80036; stroke-width: 1.0;"/><line style="stroke: #A80036; stroke-width: 1.0;" x1="82" x2="270" y1="259.0176" y2="259.0176"/><text fill="#000000" font-family="sans-serif" font-size="13" lengthAdjust="spacingAndGlyphs" textLength="37" x="89" y="254.2754">start()</text><polygon fill="#A80036" points="93,284.3281,83,288.3281,93,292.3281,89,288.3281" style="stroke: #A80036; stroke-width: 1.0;"/><line style="stroke: #A80036; stroke-width: 1.0; stroke-dasharray: 2.0,2.0;" x1="87" x2="270" y1="288.3281" y2="288.3281"/><text fill="#000000" font-family="sans-serif" font-size="13" lengthAdjust="spacingAndGlyphs" textLength="38" x="99" y="283.5859">return</text><polygon fill="#A80036" points="264,313.6387,274,317.6387,264,321.6387,268,317.6387" style="stroke: #A80036; stroke-width: 1.0;"/><line style="stroke: #A80036; stroke-width: 1.0;" x1="82" x2="270" y1="317.6387" y2="317.6387"/><text fill="#000000" font-family="sans-serif" font-size="13" lengthAdjust="spacingAndGlyphs" textLength="36" x="89" y="312.8965">stop()</text><polygon fill="#A80036" points="88,342.9492,78,346.9492,88,350.9492,84,346.9492" style="stroke: #A80036; stroke-width: 1.0;"/><line style="stroke: #A80036; stroke-width: 1.0; stroke-dasharray: 2.0,2.0;" x1="82" x2="275" y1="346.9492" y2="346.9492"/><text fill="#000000" font-family="sans-serif" font-size="13" lengthAdjust="spacingAndGlyphs" textLength="38" x="94" y="342.207">return</text><!--MD5=[711f30e21ef98be1b298e5bcead76a7c]
@startuml

skinparam NoteBackgroundColor white
hide footbox

participant "Supernaut/\nMicronaut" as Supernaut #pink
participant ForegroundApplication

[-> Supernaut : launch()
activate  Supernaut


Supernaut -> ForegroundApplication ** : new w/inject
note right: <font color=lightgreen>JFX application thread in light green
activate ForegroundApplication
activate  ForegroundApplication #LightGreen
Supernaut <- - ForegroundApplication : constructed
deactivate  ForegroundApplication  #LightGreen

Supernaut -> ForegroundApplication  : init()
activate  ForegroundApplication #DarkGreen
note right: <font color=green>JFX init thread in dark green
Supernaut <- - ForegroundApplication : return
deactivate  ForegroundApplication  #DarkGreen

Supernaut -> ForegroundApplication  : start()
activate  ForegroundApplication #LightGreen
Supernaut <- - ForegroundApplication : return
deactivate  ForegroundApplication  #LightGreen


Supernaut -> ForegroundApplication  : stop()
activate  ForegroundApplication #LightGreen
Supernaut <- - ForegroundApplication : return

deactivate ForegroundApplication  #LightGreen
deactivate ForegroundApplication

deactivate  Supernaut
@enduml

PlantUML version 1.2019.12(Sun Nov 03 02:24:54 PST 2019)
(APACHE source distribution)
Java Runtime: OpenJDK Runtime Environment
JVM: OpenJDK 64-Bit Server VM
Java Version: 17+35-2724
Operating System: Mac OS X
Default Encoding: UTF-8
Language: en
Country: US
--></g></svg>