<?xml version="1.0" encoding="UTF-8" standalone="no"?><svg xmlns="http://www.w3.org/2000/svg" xmlns:xlink="http://www.w3.org/1999/xlink" contentScriptType="application/ecmascript" contentStyleType="text/css" height="761px" preserveAspectRatio="none" style="width:979px;height:761px;" version="1.1" viewBox="0 0 979 761" width="979px" zoomAndPan="magnify"><defs><filter height="300%" id="f12nnw74a65lh3" width="300%" x="-1" y="-1"><feGaussianBlur result="blurOut" stdDeviation="2.0"/><feColorMatrix in="blurOut" result="blurOut2" type="matrix" values="0 0 0 0 0 0 0 0 0 0 0 0 0 0 0 0 0 0 .4 0"/><feOffset dx="4.0" dy="4.0" in="blurOut2" result="blurOut3"/><feBlend in="SourceGraphic" in2="blurOut3" mode="normal"/></filter></defs><g><rect fill="#FFFFFF" filter="url(#f12nnw74a65lh3)" height="645.2559" style="stroke: #A80036; stroke-width: 1.0;" width="10" x="263" y="86.2871"/><rect fill="#FFFFFF" filter="url(#f12nnw74a65lh3)" height="250.6621" style="stroke: #A80036; stroke-width: 1.0;" width="10" x="456" y="379.9492"/><rect fill="#90EE90" filter="url(#f12nnw74a65lh3)" height="40.4883" style="stroke: #A80036; stroke-width: 1.0;" width="10" x="456" y="379.9492"/><rect fill="#006400" filter="url(#f12nnw74a65lh3)" height="29.3105" style="stroke: #A80036; stroke-width: 1.0;" width="10" x="456" y="454.748"/><rect fill="#90EE90" filter="url(#f12nnw74a65lh3)" height="29.3105" style="stroke: #A80036; stroke-width: 1.0;" width="10" x="456" y="513.3691"/><rect fill="#90EE90" filter="url(#f12nnw74a65lh3)" height="29.3105" style="stroke: #A80036; stroke-width: 1.0;" width="10" x="456" y="601.3008"/><rect fill="#FFFFFF" filter="url(#f12nnw74a65lh3)" height="614.9453" style="stroke: #A80036; stroke-width: 1.0;" width="10" x="633" y="125.5977"/><rect fill="#FFC0CB" filter="url(#f12nnw74a65lh3)" height="35.4883" style="stroke: #A80036; stroke-width: 1.0;" width="10" x="633" y="125.5977"/><rect fill="#FFC0CB" filter="url(#f12nnw74a65lh3)" height="34.3105" style="stroke: #A80036; stroke-width: 1.0;" width="10" x="633" y="190.3965"/><rect fill="#FFC0CB" filter="url(#f12nnw74a65lh3)" height="472.5254" style="stroke: #A80036; stroke-width: 1.0;" width="10" x="633" y="259.0176"/><rect fill="#0000FF" filter="url(#f12nnw74a65lh3)" height="395.9043" style="stroke: #A80036; stroke-width: 1.0;" width="10" x="638" y="335.6387"/><rect fill="#90EE90" filter="url(#f12nnw74a65lh3)" height="71.6211" style="stroke: #A80036; stroke-width: 1.0;" width="10" x="643" y="659.9219"/><rect fill="#FEFECE" filter="url(#f12nnw74a65lh3)" height="30.4883" style="stroke: #A80036; stroke-width: 1.5;" width="174" x="544" y="94.2871"/><text fill="#000000" font-family="sans-serif" font-size="14" lengthAdjust="spacingAndGlyphs" textLength="160" x="551" y="114.8223">BackgroundApplication</text><rect fill="#FEFECE" filter="url(#f12nnw74a65lh3)" height="30.4883" style="stroke: #A80036; stroke-width: 1.5;" width="152" x="378" y="348.6387"/><text fill="#000000" font-family="sans-serif" font-size="14" lengthAdjust="spacingAndGlyphs" textLength="138" x="385" y="369.1738">ApplicationDelegate</text><line style="stroke: #A80036; stroke-width: 1.0; stroke-dasharray: 5.0,5.0;" x1="268" x2="268" y1="54.9766" y2="749.543"/><line style="stroke: #A80036; stroke-width: 1.0; stroke-dasharray: 5.0,5.0;" x1="456" x2="456" y1="381.3828" y2="749.543"/><line style="stroke: #A80036; stroke-width: 1.0; stroke-dasharray: 5.0,5.0;" x1="633" x2="633" y1="127.0313" y2="749.543"/><rect fill="#FFC0CB" filter="url(#f12nnw74a65lh3)" height="46.9766" style="stroke: #A80036; stroke-width: 1.5;" width="92" x="220" y="3"/><text fill="#000000" font-family="sans-serif" font-size="14" lengthAdjust="spacingAndGlyphs" textLength="78" x="227" y="23.5352">Supernaut/</text><text fill="#000000" font-family="sans-serif" font-size="14" lengthAdjust="spacingAndGlyphs" textLength="69" x="231.5" y="40.0234">Micronaut</text><rect fill="#FFFFFF" filter="url(#f12nnw74a65lh3)" height="645.2559" style="stroke: #A80036; stroke-width: 1.0;" width="10" x="263" y="86.2871"/><rect fill="#FFFFFF" filter="url(#f12nnw74a65lh3)" height="250.6621" style="stroke: #A80036; stroke-width: 1.0;" width="10" x="456" y="379.9492"/><rect fill="#90EE90" filter="url(#f12nnw74a65lh3)" height="40.4883" style="stroke: #A80036; stroke-width: 1.0;" width="10" x="456" y="379.9492"/><rect fill="#006400" filter="url(#f12nnw74a65lh3)" height="29.3105" style="stroke: #A80036; stroke-width: 1.0;" width="10" x="456" y="454.748"/><rect fill="#90EE90" filter="url(#f12nnw74a65lh3)" height="29.3105" style="stroke: #A80036; stroke-width: 1.0;" width="10" x="456" y="513.3691"/><rect fill="#90EE90" filter="url(#f12nnw74a65lh3)" height="29.3105" style="stroke: #A80036; stroke-width: 1.0;" width="10" x="456" y="601.3008"/><rect fill="#FFFFFF" filter="url(#f12nnw74a65lh3)" height="614.9453" style="stroke: #A80036; stroke-width: 1.0;" width="10" x="633" y="125.5977"/><rect fill="#FFC0CB" filter="url(#f12nnw74a65lh3)" height="35.4883" style="stroke: #A80036; stroke-width: 1.0;" width="10" x="633" y="125.5977"/><rect fill="#FFC0CB" filter="url(#f12nnw74a65lh3)" height="34.3105" style="stroke: #A80036; stroke-width: 1.0;" width="10" x="633" y="190.3965"/><rect fill="#FFC0CB" filter="url(#f12nnw74a65lh3)" height="472.5254" style="stroke: #A80036; stroke-width: 1.0;" width="10" x="633" y="259.0176"/><rect fill="#0000FF" filter="url(#f12nnw74a65lh3)" height="395.9043" style="stroke: #A80036; stroke-width: 1.0;" width="10" x="638" y="335.6387"/><rect fill="#90EE90" filter="url(#f12nnw74a65lh3)" height="71.6211" style="stroke: #A80036; stroke-width: 1.0;" width="10" x="643" y="659.9219"/><polygon fill="#A80036" points="251,82.2871,261,86.2871,251,90.2871,255,86.2871" style="stroke: #A80036; stroke-width: 1.0;"/><line style="stroke: #A80036; stroke-width: 1.0;" x1="3" x2="257" y1="86.2871" y2="86.2871"/><text fill="#000000" font-family="sans-serif" font-size="13" lengthAdjust="spacingAndGlyphs" textLength="50" x="10" y="81.5449">launch()</text><polygon fill="#A80036" points="532,111.5977,542,115.5977,532,119.5977,536,115.5977" style="stroke: #A80036; stroke-width: 1.0;"/><line style="stroke: #A80036; stroke-width: 1.0;" x1="273" x2="538" y1="115.5977" y2="115.5977"/><text fill="#000000" font-family="sans-serif" font-size="13" lengthAdjust="spacingAndGlyphs" textLength="81" x="280" y="110.8555">new w/inject</text><rect fill="#FEFECE" filter="url(#f12nnw74a65lh3)" height="30.4883" style="stroke: #A80036; stroke-width: 1.5;" width="174" x="544" y="94.2871"/><text fill="#000000" font-family="sans-serif" font-size="14" lengthAdjust="spacingAndGlyphs" textLength="160" x="551" y="114.8223">BackgroundApplication</text><path d="M737,102.376 L737,127.376 L938,127.376 L938,112.376 L928,102.376 L737,102.376 " fill="#FFFFFF" filter="url(#f12nnw74a65lh3)" style="stroke: #A80036; stroke-width: 1.0;"/><path d="M928,102.376 L928,112.376 L938,112.376 L928,102.376 " fill="#FFFFFF" style="stroke: #A80036; stroke-width: 1.0;"/><text fill="#FFC0CB" font-family="sans-serif" font-size="13" lengthAdjust="spacingAndGlyphs" textLength="180" x="743" y="119.9443">Supernaut init thread in pink</text><polygon fill="#A80036" points="284,157.0859,274,161.0859,284,165.0859,280,161.0859" style="stroke: #A80036; stroke-width: 1.0;"/><line style="stroke: #A80036; stroke-width: 1.0; stroke-dasharray: 2.0,2.0;" x1="278" x2="627" y1="161.0859" y2="161.0859"/><text fill="#000000" font-family="sans-serif" font-size="13" lengthAdjust="spacingAndGlyphs" textLength="75" x="290" y="156.3438">constructed</text><polygon fill="#A80036" points="621,186.3965,631,190.3965,621,194.3965,625,190.3965" style="stroke: #A80036; stroke-width: 1.0;"/><line style="stroke: #A80036; stroke-width: 1.0;" x1="273" x2="627" y1="190.3965" y2="190.3965"/><text fill="#000000" font-family="sans-serif" font-size="13" lengthAdjust="spacingAndGlyphs" textLength="29" x="280" y="185.6543">init()</text><polygon fill="#A80036" points="284,220.707,274,224.707,284,228.707,280,224.707" style="stroke: #A80036; stroke-width: 1.0;"/><line style="stroke: #A80036; stroke-width: 1.0; stroke-dasharray: 2.0,2.0;" x1="278" x2="627" y1="224.707" y2="224.707"/><text fill="#000000" font-family="sans-serif" font-size="13" lengthAdjust="spacingAndGlyphs" textLength="38" x="290" y="219.9648">return</text><path d="M8,203.3965 L8,228.3965 L254,228.3965 L254,213.3965 L244,203.3965 L8,203.3965 " fill="#FFFFFF" filter="url(#f12nnw74a65lh3)" style="stroke: #A80036; stroke-width: 1.0;"/><path d="M244,203.3965 L244,213.3965 L254,213.3965 L244,203.3965 " fill="#FFFFFF" style="stroke: #A80036; stroke-width: 1.0;"/><text fill="#90EE90" font-family="sans-serif" font-size="13" lengthAdjust="spacingAndGlyphs" textLength="225" x="14" y="220.9648">JFX application thread in light green</text><polygon fill="#A80036" points="621,255.0176,631,259.0176,621,263.0176,625,259.0176" style="stroke: #A80036; stroke-width: 1.0;"/><line style="stroke: #A80036; stroke-width: 1.0;" x1="273" x2="627" y1="259.0176" y2="259.0176"/><text fill="#000000" font-family="sans-serif" font-size="13" lengthAdjust="spacingAndGlyphs" textLength="37" x="280" y="254.2754">start()</text><line style="stroke: #A80036; stroke-width: 1.0;" x1="643" x2="685" y1="288.3281" y2="288.3281"/><line style="stroke: #A80036; stroke-width: 1.0;" x1="685" x2="685" y1="288.3281" y2="301.3281"/><line style="stroke: #A80036; stroke-width: 1.0;" x1="644" x2="685" y1="301.3281" y2="301.3281"/><polygon fill="#A80036" points="654,297.3281,644,301.3281,654,305.3281,650,301.3281" style="stroke: #A80036; stroke-width: 1.0;"/><text fill="#000000" font-family="sans-serif" font-size="13" lengthAdjust="spacingAndGlyphs" textLength="128" x="650" y="283.5859">start service threads</text><polygon fill="#A80036" points="284,331.6387,274,335.6387,284,339.6387,280,335.6387" style="stroke: #A80036; stroke-width: 1.0;"/><line style="stroke: #A80036; stroke-width: 1.0; stroke-dasharray: 2.0,2.0;" x1="278" x2="637" y1="335.6387" y2="335.6387"/><text fill="#000000" font-family="sans-serif" font-size="13" lengthAdjust="spacingAndGlyphs" textLength="38" x="290" y="330.8965">return</text><path d="M653,314.3281 L653,339.3281 L967,339.3281 L967,324.3281 L957,314.3281 L653,314.3281 " fill="#FFFFFF" filter="url(#f12nnw74a65lh3)" style="stroke: #A80036; stroke-width: 1.0;"/><path d="M957,314.3281 L957,324.3281 L967,324.3281 L957,314.3281 " fill="#FFFFFF" style="stroke: #A80036; stroke-width: 1.0;"/><text fill="#0000FF" font-family="sans-serif" font-size="13" lengthAdjust="spacingAndGlyphs" textLength="293" x="659" y="331.8965">Background application thread(s) if any in blue</text><polygon fill="#A80036" points="366,365.9492,376,369.9492,366,373.9492,370,369.9492" style="stroke: #A80036; stroke-width: 1.0;"/><line style="stroke: #A80036; stroke-width: 1.0;" x1="273" x2="372" y1="369.9492" y2="369.9492"/><text fill="#000000" font-family="sans-serif" font-size="13" lengthAdjust="spacingAndGlyphs" textLength="81" x="280" y="365.207">new w/inject</text><rect fill="#FEFECE" filter="url(#f12nnw74a65lh3)" height="30.4883" style="stroke: #A80036; stroke-width: 1.5;" width="152" x="378" y="348.6387"/><text fill="#000000" font-family="sans-serif" font-size="14" lengthAdjust="spacingAndGlyphs" textLength="138" x="385" y="369.1738">ApplicationDelegate</text><polygon fill="#A80036" points="284,416.4375,274,420.4375,284,424.4375,280,420.4375" style="stroke: #A80036; stroke-width: 1.0;"/><line style="stroke: #A80036; stroke-width: 1.0; stroke-dasharray: 2.0,2.0;" x1="278" x2="450" y1="420.4375" y2="420.4375"/><text fill="#000000" font-family="sans-serif" font-size="13" lengthAdjust="spacingAndGlyphs" textLength="75" x="290" y="415.6953">constructed</text><path d="M58,399.127 L58,424.127 L254,424.127 L254,409.127 L244,399.127 L58,399.127 " fill="#FFFFFF" filter="url(#f12nnw74a65lh3)" style="stroke: #A80036; stroke-width: 1.0;"/><path d="M244,399.127 L244,409.127 L254,409.127 L244,399.127 " fill="#FFFFFF" style="stroke: #A80036; stroke-width: 1.0;"/><text fill="#008000" font-family="sans-serif" font-size="13" lengthAdjust="spacingAndGlyphs" textLength="175" x="64" y="416.6953">JFX init thread in dark green</text><polygon fill="#A80036" points="444,450.748,454,454.748,444,458.748,448,454.748" style="stroke: #A80036; stroke-width: 1.0;"/><line style="stroke: #A80036; stroke-width: 1.0;" x1="273" x2="450" y1="454.748" y2="454.748"/><text fill="#000000" font-family="sans-serif" font-size="13" lengthAdjust="spacingAndGlyphs" textLength="29" x="280" y="450.0059">init()</text><polygon fill="#A80036" points="284,480.0586,274,484.0586,284,488.0586,280,484.0586" style="stroke: #A80036; stroke-width: 1.0;"/><line style="stroke: #A80036; stroke-width: 1.0; stroke-dasharray: 2.0,2.0;" x1="278" x2="450" y1="484.0586" y2="484.0586"/><text fill="#000000" font-family="sans-serif" font-size="13" lengthAdjust="spacingAndGlyphs" textLength="38" x="290" y="479.3164">return</text><polygon fill="#A80036" points="444,509.3691,454,513.3691,444,517.3691,448,513.3691" style="stroke: #A80036; stroke-width: 1.0;"/><line style="stroke: #A80036; stroke-width: 1.0;" x1="273" x2="450" y1="513.3691" y2="513.3691"/><text fill="#000000" font-family="sans-serif" font-size="13" lengthAdjust="spacingAndGlyphs" textLength="37" x="280" y="508.627">start()</text><polygon fill="#A80036" points="284,538.6797,274,542.6797,284,546.6797,280,542.6797" style="stroke: #A80036; stroke-width: 1.0;"/><line style="stroke: #A80036; stroke-width: 1.0; stroke-dasharray: 2.0,2.0;" x1="278" x2="450" y1="542.6797" y2="542.6797"/><text fill="#000000" font-family="sans-serif" font-size="13" lengthAdjust="spacingAndGlyphs" textLength="38" x="290" y="537.9375">return</text><polygon fill="#A80036" points="472,567.9902,462,571.9902,472,575.9902,468,571.9902" style="stroke: #A80036; stroke-width: 1.0;"/><line style="stroke: #A80036; stroke-width: 1.0;" x1="466" x2="637" y1="571.9902" y2="571.9902"/><text fill="#000000" font-family="sans-serif" font-size="13" lengthAdjust="spacingAndGlyphs" textLength="44" x="478" y="567.248">started</text><polygon fill="#A80036" points="444,597.3008,454,601.3008,444,605.3008,448,601.3008" style="stroke: #A80036; stroke-width: 1.0;"/><line style="stroke: #A80036; stroke-width: 1.0;" x1="273" x2="450" y1="601.3008" y2="601.3008"/><text fill="#000000" font-family="sans-serif" font-size="13" lengthAdjust="spacingAndGlyphs" textLength="36" x="280" y="596.5586">stop()</text><polygon fill="#A80036" points="284,626.6113,274,630.6113,284,634.6113,280,630.6113" style="stroke: #A80036; stroke-width: 1.0;"/><line style="stroke: #A80036; stroke-width: 1.0; stroke-dasharray: 2.0,2.0;" x1="278" x2="455" y1="630.6113" y2="630.6113"/><text fill="#000000" font-family="sans-serif" font-size="13" lengthAdjust="spacingAndGlyphs" textLength="38" x="290" y="625.8691">return</text><polygon fill="#A80036" points="631,655.9219,641,659.9219,631,663.9219,635,659.9219" style="stroke: #A80036; stroke-width: 1.0;"/><line style="stroke: #A80036; stroke-width: 1.0;" x1="273" x2="637" y1="659.9219" y2="659.9219"/><text fill="#000000" font-family="sans-serif" font-size="13" lengthAdjust="spacingAndGlyphs" textLength="36" x="280" y="655.1797">stop()</text><line style="stroke: #A80036; stroke-width: 1.0;" x1="653" x2="695" y1="689.2324" y2="689.2324"/><line style="stroke: #A80036; stroke-width: 1.0;" x1="695" x2="695" y1="689.2324" y2="702.2324"/><line style="stroke: #A80036; stroke-width: 1.0;" x1="654" x2="695" y1="702.2324" y2="702.2324"/><polygon fill="#A80036" points="664,698.2324,654,702.2324,664,706.2324,660,702.2324" style="stroke: #A80036; stroke-width: 1.0;"/><text fill="#000000" font-family="sans-serif" font-size="13" lengthAdjust="spacingAndGlyphs" textLength="127" x="660" y="684.4902">stop service threads</text><polygon fill="#A80036" points="279,727.543,269,731.543,279,735.543,275,731.543" style="stroke: #A80036; stroke-width: 1.0;"/><line style="stroke: #A80036; stroke-width: 1.0; stroke-dasharray: 2.0,2.0;" x1="273" x2="627" y1="731.543" y2="731.543"/><text fill="#000000" font-family="sans-serif" font-size="13" lengthAdjust="spacingAndGlyphs" textLength="38" x="285" y="726.8008">return</text><!--MD5=[1c2090243629af1da70ccca57ae81916]
@startuml

skinparam NoteBackgroundColor white
hide footbox

participant "Supernaut/\nMicronaut" as Supernaut #pink
participant ApplicationDelegate
participant BackgroundApplication

[-> Supernaut : launch()
activate  Supernaut

Supernaut -> BackgroundApplication ** : new w/inject
note right: <font color=pink>Supernaut init thread in pink
activate BackgroundApplication
activate BackgroundApplication #pink
Supernaut <- - BackgroundApplication : constructed
deactivate BackgroundApplication #pink

Supernaut -> BackgroundApplication : init()
activate BackgroundApplication #pink
Supernaut <- - BackgroundApplication : return
deactivate BackgroundApplication #pink

note left: <font color=lightgreen>JFX application thread in light green

Supernaut -> BackgroundApplication : start()
activate BackgroundApplication #pink
BackgroundApplication -> BackgroundApplication : start service threads
Supernaut <- - BackgroundApplication : return

note right: <font color=blue>Background application thread(s) if any in blue
activate BackgroundApplication #blue

Supernaut -> ApplicationDelegate ** : new w/inject
activate ApplicationDelegate
activate  ApplicationDelegate #LightGreen
Supernaut <- - ApplicationDelegate : constructed
deactivate  ApplicationDelegate  #LightGreen

note left: <font color=green>JFX init thread in dark green
Supernaut -> ApplicationDelegate  : init()
activate  ApplicationDelegate #DarkGreen
Supernaut <- - ApplicationDelegate : return
deactivate  ApplicationDelegate  #DarkGreen

Supernaut -> ApplicationDelegate  : start()
activate  ApplicationDelegate #LightGreen
Supernaut <- - ApplicationDelegate : return
deactivate  ApplicationDelegate  #LightGreen

ApplicationDelegate <- BackgroundApplication : started

Supernaut -> ApplicationDelegate  : stop()
activate  ApplicationDelegate #LightGreen
Supernaut <- - ApplicationDelegate : return
deactivate ApplicationDelegate  #LightGreen
deactivate ApplicationDelegate

Supernaut -> BackgroundApplication  : stop()
activate  BackgroundApplication #LightGreen
BackgroundApplication -> BackgroundApplication : stop service threads
Supernaut <- - BackgroundApplication : return
deactivate  BackgroundApplication  #blue
deactivate  BackgroundApplication  #LightGreen
deactivate  BackgroundApplication


deactivate  ApplicationDelegate
deactivate  Supernaut

@enduml

PlantUML version 1.2019.12(Sun Nov 03 02:24:54 PST 2019)
(APACHE source distribution)
Java Runtime: OpenJDK Runtime Environment
JVM: OpenJDK 64-Bit Server VM
Java Version: 17+35
Operating System: Mac OS X
Default Encoding: UTF-8
Language: en
Country: US
--></g></svg>